<?xml version="1.0" encoding="iso-8859-1"?>
<!-- Generator: Adobe Illustrator 19.0.0, SVG Export Plug-In . SVG Version: 6.00 Build 0)  -->
<svg version="1.1" id="Layer_1" xmlns="http://www.w3.org/2000/svg" xmlns:xlink="http://www.w3.org/1999/xlink" x="0px" y="0px"
	 viewBox="0 0 512.002 512.002" style="enable-background:new 0 0 512.002 512.002;" xml:space="preserve">
<circle style="fill:#FF7F4F;" cx="256.001" cy="256" r="256"/>
<path style="fill:#D35933;" d="M511.984,257.421c-0.022-3.356-0.103-6.697-0.25-10.021L409.458,146.384
	c0.862,0.862-115.529,157.887-115.529,157.887l1.988,1.988c-82.818,25.395-193.198,59.066-193.915,58.349l147.308,147.306
	c2.226,0.057,4.456,0.088,6.696,0.088C396.911,512,511.216,398.15,511.984,257.421z"/>
<path style="fill:#D0D1D3;" d="M400.307,369.778H111.696c-6.704,0-12.14-5.435-12.14-12.14V154.36
	c0-6.704,5.435-12.138,12.14-12.138h288.611c6.704,0,12.14,5.435,12.14,12.138v203.278
	C412.445,364.342,407.012,369.778,400.307,369.778z"/>
<path style="fill:#A6A8AA;" d="M400.307,142.222h-144.88v227.556h144.88c6.704,0,12.14-5.435,12.14-12.14V154.362
	C412.445,147.658,407.012,142.222,400.307,142.222z"/>
<circle style="fill:#C92F00;" cx="116.365" cy="156.444" r="6.896"/>
<circle style="fill:#EAA22F;" cx="140.068" cy="156.444" r="6.896"/>
<circle style="fill:#386895;" cx="163.772" cy="156.444" r="6.896"/>
<path style="fill:#FFFFFF;" d="M393.051,162.478H184.459c-3.332,0-6.034-2.701-6.034-6.034l0,0c0-3.332,2.701-6.034,6.034-6.034
	h208.593c3.332,0,6.034,2.701,6.034,6.034l0,0C399.085,159.777,396.384,162.478,393.051,162.478z"/>
<path style="fill:#D0D1D3;" d="M393.051,150.411H255.427v12.067h137.625c3.332,0,6.034-2.701,6.034-6.034
	S396.384,150.411,393.051,150.411z"/>
<g>
	<rect x="112.917" y="175.838" style="fill:#FFFFFF;" width="286.168" height="181.01"/>
	<rect x="112.917" y="175.838" style="fill:#FFFFFF;" width="142.515" height="181.01"/>
</g>
<rect x="255.432" y="175.838" style="fill:#D0D1D3;" width="143.653" height="181.01"/>
<path style="fill:#FFC61B;" d="M135.327,284.444c0-19.042,15.436-34.478,34.478-34.478s34.478,15.436,34.478,34.478H135.327z"/>
<path style="fill:#EAA22F;" d="M169.806,249.966c-0.193,0-0.381,0.026-0.574,0.029v34.449h35.052
	C204.284,265.402,188.848,249.966,169.806,249.966z"/>
<circle style="fill:#FEE187;" cx="169.806" cy="235.313" r="18.101"/>
<path style="fill:#FFC61B;" d="M169.806,217.212c-0.193,0-0.381,0.022-0.574,0.029v36.143c0.191,0.007,0.379,0.029,0.574,0.029
	c9.997,0,18.101-8.104,18.101-18.101S179.803,217.212,169.806,217.212z"/>
<g>
	<path style="fill:#59595B;" d="M198.25,303.407h-56.889c-1.903,0-3.448-1.545-3.448-3.448s1.545-3.448,3.448-3.448h56.889
		c1.903,0,3.448,1.545,3.448,3.448S200.153,303.407,198.25,303.407z"/>
	<path style="fill:#59595B;" d="M198.25,318.923h-56.889c-1.903,0-3.448-1.545-3.448-3.448s1.545-3.448,3.448-3.448h56.889
		c1.903,0,3.448,1.545,3.448,3.448S200.153,318.923,198.25,318.923z"/>
</g>
<g>
	<path style="fill:#808183;" d="M354.238,215.488h-85.333c-1.903,0-3.448-1.545-3.448-3.448c0-1.903,1.545-3.448,3.448-3.448h85.333
		c1.903,0,3.448,1.545,3.448,3.448C357.685,213.944,356.141,215.488,354.238,215.488z"/>
	<path style="fill:#808183;" d="M325.793,231.003h-56.889c-1.903,0-3.448-1.545-3.448-3.448s1.545-3.448,3.448-3.448h56.889
		c1.903,0,3.448,1.545,3.448,3.448S327.696,231.003,325.793,231.003z"/>
	<path style="fill:#808183;" d="M382.682,300.822H268.904c-1.903,0-3.448-1.545-3.448-3.448s1.545-3.448,3.448-3.448h113.778
		c1.903,0,3.448,1.545,3.448,3.448S384.585,300.822,382.682,300.822z"/>
	<path style="fill:#808183;" d="M344.756,316.337h-75.852c-1.903,0-3.448-1.545-3.448-3.448s1.545-3.448,3.448-3.448h75.852
		c1.903,0,3.448,1.545,3.448,3.448S346.659,316.337,344.756,316.337z"/>
</g>
<g>
	<path style="fill:#A6A8AA;" d="M325.793,259.448h-56.889c-1.903,0-3.448-1.545-3.448-3.448s1.545-3.448,3.448-3.448h56.889
		c1.903,0,3.448,1.545,3.448,3.448S327.696,259.448,325.793,259.448z"/>
	<path style="fill:#A6A8AA;" d="M382.682,274.963H268.904c-1.903,0-3.448-1.545-3.448-3.448s1.545-3.448,3.448-3.448h113.778
		c1.903,0,3.448,1.545,3.448,3.448S384.585,274.963,382.682,274.963z"/>
</g>
<g>
</g>
<g>
</g>
<g>
</g>
<g>
</g>
<g>
</g>
<g>
</g>
<g>
</g>
<g>
</g>
<g>
</g>
<g>
</g>
<g>
</g>
<g>
</g>
<g>
</g>
<g>
</g>
<g>
</g>
</svg>
