<?xml version="1.0" encoding="iso-8859-1"?>
<!-- Generator: Adobe Illustrator 19.0.0, SVG Export Plug-In . SVG Version: 6.00 Build 0)  -->
<svg version="1.1" id="Layer_1" xmlns="http://www.w3.org/2000/svg" xmlns:xlink="http://www.w3.org/1999/xlink" x="0px" y="0px"
	 viewBox="0 0 512 512" style="enable-background:new 0 0 512 512;" xml:space="preserve">
<circle style="fill:#273B7A;" cx="256" cy="256" r="256"/>
<path style="fill:#121149;" d="M511.924,261.958L394.002,145.161c-0.378,0.378-11.271,63.934-21.014,106.005l-3.212-3.212
	c0,0-282.433,118.662-281.571,117.8L233.451,511c7.432,0.648,14.948,1,22.547,1C395.393,512,508.757,400.589,511.924,261.958z"/>
<path style="fill:#D0D1D3;" d="M386.082,369.778H97.473c-6.704,0-12.14-5.435-12.14-12.14V154.36c0-6.704,5.435-12.138,12.14-12.138
	h288.611c6.704,0,12.14,5.435,12.14,12.138v203.278C398.222,364.342,392.787,369.778,386.082,369.778z"/>
<path style="fill:#A6A8AA;" d="M386.082,142.222H239.335v227.556h146.747c6.704,0,12.14-5.435,12.14-12.14V154.362
	C398.222,147.658,392.787,142.222,386.082,142.222z"/>
<circle style="fill:#C92F00;" cx="102.141" cy="156.444" r="6.896"/>
<circle style="fill:#EAA22F;" cx="125.845" cy="156.444" r="6.896"/>
<circle style="fill:#386895;" cx="149.549" cy="156.444" r="6.896"/>
<path style="fill:#FFFFFF;" d="M378.828,162.478H170.236c-3.332,0-6.034-2.701-6.034-6.034l0,0c0-3.332,2.701-6.034,6.034-6.034
	h208.593c3.332,0,6.034,2.701,6.034,6.034l0,0C384.862,159.777,382.161,162.478,378.828,162.478z"/>
<path style="fill:#D0D1D3;" d="M378.828,150.411H239.337v12.067h139.492c3.332,0,6.034-2.701,6.034-6.034
	S382.161,150.411,378.828,150.411z"/>
<rect x="98.694" y="175.838" style="fill:#FFFFFF;" width="286.168" height="181.01"/>
<rect x="239.33" y="175.838" style="fill:#D0D1D3;" width="145.532" height="181.01"/>
<path style="fill:#477F3C;" d="M128.431,330.128c-3.332,0-6.034-2.701-6.034-6.034v-96.539c0-3.332,2.701-6.034,6.034-6.034
	s6.034,2.701,6.034,6.034v96.539C134.465,327.427,131.763,330.128,128.431,330.128z"/>
<path style="fill:#FF5419;" d="M174.976,330.128c-3.332,0-6.034-2.701-6.034-6.034v-96.539c0-3.332,2.701-6.034,6.034-6.034
	s6.034,2.701,6.034,6.034v96.539C181.01,327.427,178.309,330.128,174.976,330.128z"/>
<path style="fill:#FFC61B;" d="M150.842,330.128c-3.332,0-6.034-2.701-6.034-6.034v-48.269c0-3.332,2.701-6.034,6.034-6.034
	s6.034,2.701,6.034,6.034v48.269C156.875,327.427,154.174,330.128,150.842,330.128z"/>
<g>
	<path style="fill:#EAA22F;" d="M341.333,205.145H227.556c-3.332,0-6.034-2.701-6.034-6.034c0-3.332,2.701-6.034,6.034-6.034
		h113.778c3.332,0,6.034,2.701,6.034,6.034C347.367,202.443,344.666,205.145,341.333,205.145z"/>
	<path style="fill:#EAA22F;" d="M312.889,233.589h-85.333c-3.332,0-6.034-2.701-6.034-6.034c0-3.332,2.701-6.034,6.034-6.034h85.333
		c3.332,0,6.034,2.701,6.034,6.034C318.923,230.888,316.221,233.589,312.889,233.589z"/>
</g>
<g>
	<path style="fill:#A6A8AA;" d="M341.333,262.896H227.556c-1.903,0-3.448-1.545-3.448-3.448s1.545-3.448,3.448-3.448h113.778
		c1.903,0,3.448,1.545,3.448,3.448S343.237,262.896,341.333,262.896z"/>
	<path style="fill:#A6A8AA;" d="M284.444,276.687h-56.889c-1.903,0-3.448-1.545-3.448-3.448s1.545-3.448,3.448-3.448h56.889
		c1.903,0,3.448,1.545,3.448,3.448S286.348,276.687,284.444,276.687z"/>
	<path style="fill:#A6A8AA;" d="M312.889,290.478h-85.333c-1.903,0-3.448-1.545-3.448-3.448s1.545-3.448,3.448-3.448h85.333
		c1.903,0,3.448,1.545,3.448,3.448S314.792,290.478,312.889,290.478z"/>
	<path style="fill:#A6A8AA;" d="M341.333,305.993H227.556c-1.903,0-3.448-1.545-3.448-3.448s1.545-3.448,3.448-3.448h113.778
		c1.903,0,3.448,1.545,3.448,3.448S343.237,305.993,341.333,305.993z"/>
	<path style="fill:#A6A8AA;" d="M284.444,319.785h-56.889c-1.903,0-3.448-1.545-3.448-3.448s1.545-3.448,3.448-3.448h56.889
		c1.903,0,3.448,1.545,3.448,3.448S286.348,319.785,284.444,319.785z"/>
	<path style="fill:#A6A8AA;" d="M312.889,333.576h-85.333c-1.903,0-3.448-1.545-3.448-3.448s1.545-3.448,3.448-3.448h85.333
		c1.903,0,3.448,1.545,3.448,3.448S314.792,333.576,312.889,333.576z"/>
</g>
<g>
</g>
<g>
</g>
<g>
</g>
<g>
</g>
<g>
</g>
<g>
</g>
<g>
</g>
<g>
</g>
<g>
</g>
<g>
</g>
<g>
</g>
<g>
</g>
<g>
</g>
<g>
</g>
<g>
</g>
</svg>
