<?xml version="1.0" encoding="iso-8859-1"?>
<!-- Generator: Adobe Illustrator 19.0.0, SVG Export Plug-In . SVG Version: 6.00 Build 0)  -->
<svg version="1.1" id="Layer_1" xmlns="http://www.w3.org/2000/svg" xmlns:xlink="http://www.w3.org/1999/xlink" x="0px" y="0px"
	 viewBox="0 0 512 512" style="enable-background:new 0 0 512 512;" xml:space="preserve">
<circle style="fill:#FF6262;" cx="256" cy="256" r="256"/>
<path style="fill:#FF314F;" d="M369.778,183.02l-69.242,18.103l-72.588-4.206l-112.335,27.612l112.044,112.044l-80.803,56.404
	L265.676,511.8c115.805-4.305,211.935-85.52,238.813-194.069L369.778,183.02z"/>
<path style="fill:#FFFFFF;" d="M300.535,113.778H159.03c-9.283,0-16.808,7.525-16.808,16.808v250.828
	c0,9.283,7.525,16.808,16.808,16.808H352.97c9.283,0,16.808-7.525,16.808-16.808V183.02L300.535,113.778z"/>
<path style="fill:#D0D1D3;" d="M300.535,113.778H256v284.444h96.97c9.283,0,16.808-7.525,16.808-16.808V183.02L300.535,113.778z"/>
<path style="fill:#A6A8AA;" d="M300.535,166.212c0,9.283,7.525,16.808,16.808,16.808h52.434l-69.242-69.242V166.212z"/>
<path style="fill:#386895;" d="M247.811,227.556H121.966c-4.522,0-8.189-3.667-8.189-8.189v-40.512c0-4.522,3.667-8.189,8.189-8.189
	h125.845c4.522,0,8.189,3.667,8.189,8.189v40.512C256,223.889,252.333,227.556,247.811,227.556z"/>
<g>
	<path style="fill:#FFFFFF;" d="M171.592,201.799c-0.412,1.727-0.826,3.022-1.238,3.886c-0.412,0.864-1.043,1.784-1.895,2.765
		c-2.114,2.396-5.065,3.594-8.852,3.594c-3.994,0-7.12-1.295-9.375-3.884c-2.257-2.591-3.384-6.178-3.384-10.766
		c0-4.46,1.16-8.004,3.481-10.631c2.32-2.627,5.437-3.943,9.356-3.943c3.298,0,6.003,0.877,8.118,2.627
		c2.113,1.755,3.375,4.149,3.787,7.19h-5.797c-0.412-1.391-0.941-2.448-1.586-3.17c-1.005-1.083-2.462-1.622-4.367-1.622
		c-2.217,0-3.949,0.857-5.201,2.57c-1.25,1.714-1.874,4.091-1.874,7.132c0,2.965,0.61,5.284,1.834,6.959
		c1.224,1.676,2.907,2.512,5.046,2.512c2.215,0,3.879-0.798,4.987-2.396c0.464-0.645,0.85-1.586,1.16-2.824L171.592,201.799
		L171.592,201.799z"/>
	<path style="fill:#FFFFFF;" d="M197.377,203.074c0,2.782-1.005,4.975-3.015,6.573c-2.01,1.598-4.755,2.396-8.233,2.396
		c-3.401,0-6.134-0.734-8.195-2.203c-0.85-0.593-1.572-1.403-2.165-2.434c-0.695-1.186-1.095-2.732-1.196-4.639h5.566
		c0.179,2.989,2.203,4.486,6.07,4.486c3.737,0,5.606-1.186,5.606-3.556c0-1.52-1.303-2.589-3.906-3.206l-2.124-0.503
		c-3.325-0.772-5.592-1.417-6.804-1.933c-2.655-1.108-3.982-3.298-3.982-6.573c0-2.731,0.941-4.856,2.822-6.377
		c1.883-1.52,4.486-2.281,7.809-2.281c3.272,0,5.849,0.779,7.73,2.338c1.881,1.56,2.924,3.77,3.131,6.63h-5.566
		c-0.412-2.782-2.279-4.175-5.604-4.175c-1.495,0-2.688,0.297-3.575,0.89c-0.89,0.595-1.333,1.393-1.333,2.398
		c0,1.47,0.977,2.45,2.938,2.938l6.765,1.662c2.603,0.645,4.465,1.546,5.585,2.707C196.818,199.37,197.377,200.987,197.377,203.074z
		"/>
	<path style="fill:#FFFFFF;" d="M223.16,203.074c0,2.782-1.005,4.975-3.015,6.573c-2.01,1.598-4.755,2.396-8.233,2.396
		c-3.401,0-6.134-0.734-8.195-2.203c-0.85-0.593-1.572-1.403-2.165-2.434c-0.695-1.186-1.095-2.732-1.196-4.639h5.566
		c0.179,2.989,2.203,4.486,6.07,4.486c3.737,0,5.606-1.186,5.606-3.556c0-1.52-1.303-2.589-3.906-3.206l-2.124-0.503
		c-3.325-0.772-5.592-1.417-6.804-1.933c-2.655-1.108-3.982-3.298-3.982-6.573c0-2.731,0.941-4.856,2.822-6.377
		c1.883-1.52,4.486-2.281,7.809-2.281c3.272,0,5.849,0.779,7.73,2.338c1.881,1.56,2.924,3.77,3.131,6.63h-5.566
		c-0.412-2.782-2.279-4.175-5.604-4.175c-1.495,0-2.688,0.297-3.575,0.89c-0.89,0.595-1.333,1.393-1.333,2.398
		c0,1.47,0.977,2.45,2.938,2.938l6.765,1.662c2.603,0.645,4.465,1.546,5.585,2.707C222.599,199.363,223.16,200.987,223.16,203.074z"
		/>
</g>
<g>
	<path style="fill:#386895;" d="M213.495,363.598h-4.453c-7.111,0-12.895-5.784-12.895-12.895v-24.767l-7.482-7.483
		c-1.684-1.684-1.684-4.413,0-6.094l7.482-7.482v-24.767c0-7.111,5.784-12.895,12.895-12.895h4.453c2.381,0,4.31,1.929,4.31,4.31
		s-1.929,4.31-4.31,4.31h-4.453c-2.358,0-4.275,1.917-4.275,4.275v26.552c0,1.143-0.455,2.239-1.262,3.048l-5.698,5.697l5.698,5.699
		c0.809,0.809,1.262,1.903,1.262,3.048v26.552c0,2.358,1.917,4.275,4.275,4.275h4.453c2.381,0,4.31,1.929,4.31,4.31
		S215.876,363.598,213.495,363.598z"/>
	<path style="fill:#386895;" d="M302.957,363.598h-4.453c-2.381,0-4.31-1.929-4.31-4.31s1.929-4.31,4.31-4.31h4.453
		c2.358,0,4.275-1.917,4.275-4.275v-26.552c0-1.143,0.455-2.239,1.262-3.048l5.697-5.699l-5.697-5.697
		c-0.809-0.809-1.262-1.903-1.262-3.048v-26.552c0-2.358-1.917-4.275-4.275-4.275h-4.453c-2.381,0-4.31-1.929-4.31-4.31
		s1.929-4.31,4.31-4.31h4.453c7.111,0,12.895,5.784,12.895,12.895v24.767l7.482,7.482c1.684,1.683,1.684,4.411,0,6.094l-7.482,7.483
		v24.767C315.852,357.814,310.069,363.598,302.957,363.598z"/>
	<path style="fill:#386895;" d="M278.059,350.384c-1.829,0-3.603-0.743-4.879-2.017c-1.293-1.293-2.034-3.069-2.034-4.879
		c0-1.81,0.741-3.586,2.034-4.879c1.276-1.276,3.051-2.017,4.879-2.017c1.81,0,3.586,0.741,4.861,2.017
		c1.293,1.293,2.034,3.069,2.034,4.879c0,1.81-0.741,3.586-2.034,4.879C281.645,349.641,279.869,350.384,278.059,350.384z"/>
	<path style="fill:#386895;" d="M249.599,343.488c0-3.81,3.103-6.896,6.896-6.896l0,0c3.827,0,6.913,3.086,6.913,6.896l0,0
		c0,3.81-3.086,6.896-6.913,6.896l0,0C252.7,350.384,249.599,347.298,249.599,343.488z"/>
	<path style="fill:#386895;" d="M234.946,350.384c-1.812,0-3.586-0.743-4.861-2.017c-1.293-1.293-2.017-3.069-2.017-4.879
		c0-1.81,0.724-3.586,2.017-4.879c1.276-1.276,3.051-2.017,4.861-2.017c1.827,0,3.603,0.741,4.879,2.017
		c1.293,1.293,2.017,3.069,2.017,4.879c0,1.81-0.724,3.586-2.017,4.879C238.547,349.641,236.772,350.384,234.946,350.384z"/>
</g>
<g>
</g>
<g>
</g>
<g>
</g>
<g>
</g>
<g>
</g>
<g>
</g>
<g>
</g>
<g>
</g>
<g>
</g>
<g>
</g>
<g>
</g>
<g>
</g>
<g>
</g>
<g>
</g>
<g>
</g>
</svg>
