<?xml version="1.0" encoding="iso-8859-1"?>
<!-- Generator: Adobe Illustrator 19.0.0, SVG Export Plug-In . SVG Version: 6.00 Build 0)  -->
<svg version="1.1" id="Layer_1" xmlns="http://www.w3.org/2000/svg" xmlns:xlink="http://www.w3.org/1999/xlink" x="0px" y="0px"
	 viewBox="0 0 512 512" style="enable-background:new 0 0 512 512;" xml:space="preserve">
<circle style="fill:#FFA68A;" cx="256" cy="256" r="256"/>
<path style="fill:#FF7F4F;" d="M511.99,256.8l-85.323-85.323l-32.684,50.598l-73.749-73.749l-51.522,47.406l-29.956-29.956
	L81.946,312.889l197.989,197.989C409.833,498.831,511.583,389.749,511.99,256.8z"/>
<polygon style="fill:#808183;" points="251.227,354.942 153.31,354.942 177.79,281.507 226.747,281.507 "/>
<polygon style="fill:#59595B;" points="226.747,281.505 202.416,281.505 202.416,354.942 251.227,354.942 "/>
<path style="fill:#D0D1D3;" d="M253.45,369.778H151.085c-5.325,0-9.644-4.317-9.644-9.644l0,0c0-5.325,4.317-9.644,9.644-9.644
	H253.45c5.325,0,9.644,4.317,9.644,9.644l0,0C263.094,365.461,258.777,369.778,253.45,369.778z"/>
<path style="fill:#A6A8AA;" d="M253.45,350.492h-51.035v19.285h51.035c5.325,0,9.644-4.317,9.644-9.644l0,0
	C263.094,354.809,258.777,350.492,253.45,350.492z"/>
<path style="fill:#D0D1D3;" d="M313.659,317.483H90.877c-6.077,0-11.002-4.927-11.002-11.002V157.134
	c0-6.077,4.927-11.002,11.002-11.002h222.782c6.077,0,11.004,4.927,11.004,11.002v149.345
	C324.661,312.556,319.736,317.483,313.659,317.483z"/>
<path style="fill:#A6A8AA;" d="M313.659,146.132H202.418v171.351h111.242c6.077,0,11.002-4.925,11.002-11.004V157.134
	C324.661,151.057,319.736,146.132,313.659,146.132z"/>
<path style="fill:#3D3939;" d="M324.661,157.134c0-6.077-4.927-11.004-11.004-11.004H90.877c-6.077,0-11.004,4.925-11.004,11.004
	v118.122h244.788V157.134L324.661,157.134z"/>
<path style="fill:#272525;" d="M324.661,157.134c0-6.077-4.927-11.004-11.004-11.004H202.416v129.124h122.246V157.134
	L324.661,157.134z"/>
<rect x="91.002" y="157.255" style="fill:#FF6262;" width="222.539" height="108.299"/>
<rect x="202.421" y="157.255" style="fill:#FF314F;" width="111.123" height="108.299"/>
<circle style="fill:#808183;" cx="202.266" cy="293.012" r="8.901"/>
<path style="fill:#59595B;" d="M211.17,293.004c0-4.865-3.908-8.806-8.752-8.887v17.773
	C207.262,301.809,211.17,297.868,211.17,293.004z"/>
<path style="fill:#3D3939;" d="M361.898,305.578h61.957c2.936,0,5.315-2.381,5.315-5.315v-124.28c0-2.936-2.381-5.315-5.315-5.315
	h-61.957c-2.936,0-5.315,2.381-5.315,5.315v124.28C356.581,303.197,358.962,305.578,361.898,305.578z"/>
<path style="fill:#272525;" d="M423.855,170.667h-30.946v134.911h30.946c2.936,0,5.315-2.381,5.315-5.315v-124.28
	C429.17,173.046,426.791,170.667,423.855,170.667z"/>
<rect x="362.589" y="181.665" style="fill:#386895;" width="60.578" height="104.124"/>
<rect x="392.913" y="181.665" style="fill:#273B7A;" width="30.256" height="104.124"/>
<circle style="fill:#808183;" cx="392.878" cy="293.84" r="4.032"/>
<path style="fill:#59595B;" d="M396.909,293.847c0-2.217-1.788-4.012-4.001-4.029v8.059
	C395.121,297.858,396.909,296.062,396.909,293.847z"/>
<path style="fill:#FFFFFF;" d="M401.88,219.379l-14.027-14.027c-2.02-2.02-5.292-2.02-7.313,0c-2.02,2.019-2.02,5.294,0,7.313
	l5.199,5.199H282.905l5.199-5.199c2.02-2.019,2.02-5.294,0-7.313c-2.02-2.02-5.292-2.02-7.313,0l-14.027,14.027
	c-2.02,2.019-2.02,5.294,0,7.313l14.027,14.027c1.01,1.01,2.334,1.515,3.656,1.515s2.646-0.505,3.656-1.515
	c2.02-2.019,2.02-5.294,0-7.313l-5.199-5.199h102.834l-5.199,5.199c-2.02,2.019-2.02,5.294,0,7.313
	c1.01,1.01,2.334,1.515,3.656,1.515s2.646-0.505,3.656-1.515l14.027-14.027C403.899,224.673,403.899,221.398,401.88,219.379z"/>
<g>
</g>
<g>
</g>
<g>
</g>
<g>
</g>
<g>
</g>
<g>
</g>
<g>
</g>
<g>
</g>
<g>
</g>
<g>
</g>
<g>
</g>
<g>
</g>
<g>
</g>
<g>
</g>
<g>
</g>
</svg>
