<?xml version="1.0" encoding="iso-8859-1"?>
<!-- Generator: Adobe Illustrator 19.0.0, SVG Export Plug-In . SVG Version: 6.00 Build 0)  -->
<svg version="1.1" id="Layer_1" xmlns="http://www.w3.org/2000/svg" xmlns:xlink="http://www.w3.org/1999/xlink" x="0px" y="0px"
	 viewBox="0 0 512.002 512.002" style="enable-background:new 0 0 512.002 512.002;" xml:space="preserve">
<circle style="fill:#273B7A;" cx="256.001" cy="256" r="256"/>
<path style="fill:#121149;" d="M509.687,290.442L385.535,166.29l-80.403,62.416l-20.544,1.581L123.136,388.865l122.927,122.927
	c3.298,0.126,6.608,0.21,9.937,0.21C385.704,512,492.862,415.537,509.687,290.442z"/>
<path style="fill:#FEE187;" d="M191.522,388.863h-68.386v-68.384l188.975-188.975c11.159-11.159,29.25-11.159,40.408,0
	l27.976,27.976c11.159,11.159,11.159,29.249,0,40.408L191.522,388.863z"/>
<path style="fill:#FFC61B;" d="M366.221,145.206L123.138,388.289v0.574h68.386L380.498,199.89c11.159-11.159,11.159-29.249,0-40.408
	L366.221,145.206z"/>
<polygon style="fill:#EAA22F;" points="148.695,388.863 123.138,363.306 123.138,388.863 "/>
<polygon style="fill:#E09112;" points="123.138,388.289 123.138,388.863 148.695,388.863 135.629,375.798 "/>
<path style="fill:#FF314F;" d="M380.496,199.89c11.159-11.159,11.159-29.25,0-40.408l-27.976-27.976
	c-11.159-11.159-29.249-11.159-40.408,0l-13.643,13.643l68.386,68.384L380.496,199.89z"/>
<path style="fill:#A30F44;" d="M366.221,145.206l-33.847,33.847l34.48,34.478l13.643-13.643c11.159-11.159,11.159-29.249,0-40.408
	L366.221,145.206z"/>
<rect x="121.012" y="218.654" transform="matrix(-0.7071 0.7071 -0.7071 -0.7071 607.0201 282.5822)" style="fill:#FF6262;" width="247.947" height="96.71"/>
<rect x="237.551" y="159.993" transform="matrix(0.7071 0.7071 -0.7071 0.7071 277.5137 -102.0446)" style="fill:#FF314F;" width="48.769" height="247.947"/>
<g>
</g>
<g>
</g>
<g>
</g>
<g>
</g>
<g>
</g>
<g>
</g>
<g>
</g>
<g>
</g>
<g>
</g>
<g>
</g>
<g>
</g>
<g>
</g>
<g>
</g>
<g>
</g>
<g>
</g>
</svg>
