<?xml version="1.0" encoding="iso-8859-1"?>
<!-- Generator: Adobe Illustrator 19.0.0, SVG Export Plug-In . SVG Version: 6.00 Build 0)  -->
<svg version="1.1" id="Layer_1" xmlns="http://www.w3.org/2000/svg" xmlns:xlink="http://www.w3.org/1999/xlink" x="0px" y="0px"
	 viewBox="0 0 512 512" style="enable-background:new 0 0 512 512;" xml:space="preserve">
<circle style="fill:#FFAD9E;" cx="256" cy="256" r="256"/>
<path style="fill:#FF6262;" d="M274.403,511.336C407.197,501.901,512,391.196,512,256c0-8.402-0.417-16.708-1.208-24.904
	L407.393,127.698l-26.988,91.808l-53.384,9.485l-224.244,110.72L274.403,511.336z"/>
<polygon style="fill:#808183;" points="318.75,392.38 193.25,392.38 224.625,298.255 287.375,298.255 "/>
<polygon style="fill:#59595B;" points="287.375,298.255 255.426,298.255 255.426,392.38 318.75,392.38 "/>
<path style="fill:#D0D1D3;" d="M321.602,411.395H190.397c-6.827,0-12.36-5.534-12.36-12.36l0,0c0-6.827,5.534-12.36,12.36-12.36
	h131.205c6.827,0,12.36,5.534,12.36,12.36l0,0C333.962,405.861,328.428,411.395,321.602,411.395z"/>
<path style="fill:#A6A8AA;" d="M321.602,386.676h-66.177v24.719h66.177c6.827,0,12.36-5.534,12.36-12.36
	S328.428,386.676,321.602,386.676z"/>
<path style="fill:#D0D1D3;" d="M398.772,344.366H113.228c-7.789,0-14.103-6.315-14.103-14.103V138.843
	c0-7.789,6.315-14.103,14.103-14.103h285.546c7.789,0,14.103,6.315,14.103,14.103v191.421
	C412.875,338.051,406.561,344.366,398.772,344.366z"/>
<path style="fill:#A6A8AA;" d="M398.772,124.74H255.426v219.626h143.346c7.789,0,14.103-6.315,14.103-14.103V138.843
	C412.875,131.055,406.561,124.74,398.772,124.74z"/>
<g>
	<path style="fill:#272525;" d="M412.875,138.843c0-7.789-6.315-14.103-14.103-14.103H113.228c-7.789,0-14.103,6.315-14.103,14.103
		v148.618h313.751V138.843z"/>
	<path style="fill:#272525;" d="M412.875,138.843c0-7.789-6.315-14.103-14.103-14.103H256v162.721h156.875V138.843z"/>
</g>
<circle style="fill:#808183;" cx="256" cy="312.992" r="11.409"/>
<path style="fill:#59595B;" d="M256,301.582c-0.193,0-0.383,0.019-0.574,0.029v22.761c0.191,0.01,0.381,0.029,0.574,0.029
	c6.301,0,11.409-5.108,11.409-11.409C267.409,306.69,262.301,301.582,256,301.582z"/>
<rect x="113.386" y="138.999" style="fill:#FFFFFF;" width="285.237" height="138.809"/>
<g>
	<rect x="255.431" y="138.999" style="fill:#D0D1D3;" width="143.188" height="138.809"/>
	<rect x="130.5" y="168.943" style="fill:#D0D1D3;" width="68.455" height="94.125"/>
	<rect x="221.78" y="168.943" style="fill:#D0D1D3;" width="68.455" height="94.125"/>
</g>
<g>
	<rect x="255.431" y="168.943" style="fill:#A6A8AA;" width="34.806" height="94.125"/>
	<rect x="313.044" y="168.943" style="fill:#A6A8AA;" width="68.455" height="94.125"/>
</g>
<g>
	<rect x="130.5" y="168.943" style="fill:#386895;" width="68.455" height="18.541"/>
	<rect x="221.78" y="168.943" style="fill:#386895;" width="68.455" height="18.541"/>
</g>
<g>
	<rect x="255.431" y="168.943" style="fill:#273B7A;" width="34.806" height="18.541"/>
	<rect x="313.044" y="168.943" style="fill:#273B7A;" width="68.455" height="18.541"/>
</g>
<g>
</g>
<g>
</g>
<g>
</g>
<g>
</g>
<g>
</g>
<g>
</g>
<g>
</g>
<g>
</g>
<g>
</g>
<g>
</g>
<g>
</g>
<g>
</g>
<g>
</g>
<g>
</g>
<g>
</g>
</svg>
