<?xml version="1.0" encoding="iso-8859-1"?>
<!-- Generator: Adobe Illustrator 19.0.0, SVG Export Plug-In . SVG Version: 6.00 Build 0)  -->
<svg version="1.1" id="Layer_1" xmlns="http://www.w3.org/2000/svg" xmlns:xlink="http://www.w3.org/1999/xlink" x="0px" y="0px"
	 viewBox="0 0 512 512" style="enable-background:new 0 0 512 512;" xml:space="preserve">
<circle style="fill:#FF7F4F;" cx="256" cy="256" r="256"/>
<path style="fill:#D35933;" d="M512,256c0-2.632-0.053-5.251-0.131-7.864l-102.89-102.267c-1.724,0-105.858,161.849-105.858,161.849
	l7.652,7.652c-57.89,13.926-206.655,51.855-207.584,50.926l145.196,145.582c2.531,0.074,5.067,0.122,7.614,0.122
	C397.384,512,512,397.384,512,256z"/>
<path style="fill:#D0D1D3;" d="M400.305,369.778H111.694c-6.704,0-12.14-5.435-12.14-12.14V154.36
	c0-6.704,5.435-12.138,12.14-12.138h288.611c6.704,0,12.14,5.435,12.14,12.138v203.278
	C412.444,364.342,407.009,369.778,400.305,369.778z"/>
<path style="fill:#A6A8AA;" d="M400.305,142.222H254.85v227.556h145.455c6.704,0,12.14-5.435,12.14-12.14V154.362
	C412.444,147.658,407.009,142.222,400.305,142.222z"/>
<circle style="fill:#02B2B2;" cx="249.104" cy="162.909" r="6.896"/>
<circle style="fill:#A30F44;" cx="192.215" cy="162.909" r="6.896"/>
<circle style="fill:#EAA22F;" cx="305.993" cy="162.909" r="6.896"/>
<circle style="fill:#386895;" cx="362.882" cy="162.909" r="6.896"/>
<path style="fill:#FFFFFF;" d="M393.209,317.63H118.791c-3.244,0-5.875-2.631-5.875-5.875v-125.3c0-3.244,2.631-5.875,5.875-5.875
	h274.418c3.244,0,5.875,2.631,5.875,5.875v125.3C399.084,314.999,396.453,317.63,393.209,317.63z"/>
<path style="fill:#D0D1D3;" d="M393.209,180.579H254.852v137.05h138.357c3.244,0,5.875-2.631,5.875-5.875v-125.3
	C399.084,183.21,396.453,180.579,393.209,180.579z"/>
<g>
	<path style="fill:#A6A8AA;" d="M256,203.421H142.222c-2.381,0-4.31-1.929-4.31-4.31c0-2.381,1.929-4.31,4.31-4.31H256
		c2.381,0,4.31,1.929,4.31,4.31C260.31,201.492,258.381,203.421,256,203.421z"/>
	<path style="fill:#A6A8AA;" d="M369.778,241.347H142.222c-2.381,0-4.31-1.929-4.31-4.31s1.929-4.31,4.31-4.31h227.556
		c2.381,0,4.31,1.929,4.31,4.31S372.158,241.347,369.778,241.347z"/>
	<path style="fill:#A6A8AA;" d="M369.778,260.31H142.222c-2.381,0-4.31-1.929-4.31-4.31s1.929-4.31,4.31-4.31h227.556
		c2.381,0,4.31,1.929,4.31,4.31S372.158,260.31,369.778,260.31z"/>
	<path style="fill:#A6A8AA;" d="M369.778,281.859H142.222c-2.381,0-4.31-1.929-4.31-4.31s1.929-4.31,4.31-4.31h227.556
		c2.381,0,4.31,1.929,4.31,4.31S372.158,281.859,369.778,281.859z"/>
	<path style="fill:#A6A8AA;" d="M369.778,300.822H142.222c-2.381,0-4.31-1.929-4.31-4.31s1.929-4.31,4.31-4.31h227.556
		c2.381,0,4.31,1.929,4.31,4.31S372.158,300.822,369.778,300.822z"/>
</g>
<g>
	<path style="fill:#808183;" d="M256,194.801h-1.148v8.62H256c2.381,0,4.31-1.929,4.31-4.31
		C260.31,196.73,258.381,194.801,256,194.801z"/>
	<path style="fill:#808183;" d="M369.778,232.727H254.852v8.62h114.926c2.381,0,4.31-1.929,4.31-4.31
		S372.158,232.727,369.778,232.727z"/>
	<path style="fill:#808183;" d="M369.778,251.69H254.852v8.62h114.926c2.381,0,4.31-1.929,4.31-4.31S372.158,251.69,369.778,251.69z
		"/>
	<path style="fill:#808183;" d="M369.778,273.239H254.852v8.62h114.926c2.381,0,4.31-1.929,4.31-4.31
		S372.158,273.239,369.778,273.239z"/>
	<path style="fill:#808183;" d="M369.778,292.202H254.852v8.62h114.926c2.381,0,4.31-1.929,4.31-4.31
		S372.158,292.202,369.778,292.202z"/>
</g>
<path style="fill:#477F3C;" d="M319.857,356.418h71.399c3.848,0,6.968-3.119,6.968-6.968v-14.51c0-3.848-3.119-6.968-6.968-6.968
	h-71.399c-3.848,0-6.968,3.119-6.968,6.968v14.51C312.889,353.299,316.007,356.418,319.857,356.418z"/>
<path style="fill:#808183;" d="M256,356.418h40.87c3.848,0,6.968-3.119,6.968-6.968v-14.51c0-3.848-3.119-6.968-6.968-6.968H256
	c-3.848,0-6.968,3.119-6.968,6.968v14.51C249.032,353.299,252.152,356.418,256,356.418z"/>
<g>
</g>
<g>
</g>
<g>
</g>
<g>
</g>
<g>
</g>
<g>
</g>
<g>
</g>
<g>
</g>
<g>
</g>
<g>
</g>
<g>
</g>
<g>
</g>
<g>
</g>
<g>
</g>
<g>
</g>
</svg>
